<svg aria-hidden="true" xmlns="http://www.w3.org/2000/svg"><defs><symbol id="close" viewBox="0 0 32 32"><path d="M18.088 16 30.37 3.719a1.481 1.481 0 0 0-2.089-2.089L16 13.911 3.719 1.615a1.487 1.487 0 1 0-2.104 2.104L13.911 16 1.615 28.281a1.484 1.484 0 0 0 .423 2.505 1.472 1.472 0 0 0 1.186-.046c.184-.089.347-.215.48-.37L16 18.088 28.281 30.37a1.481 1.481 0 0 0 2.089-2.089L18.088 16z"/></symbol><symbol id="icon-love" viewBox="0 0 32 32"><path fill="#ff6b08" style="fill:var(--color1,#ff6b08)" d="m16 30.144-2.24-2.218C5.44 20.639 0 15.728 0 9.708 0 4.797 3.84.995 8.8.995c2.72 0 5.44 1.267 7.2 3.327C17.76 2.263 20.48.995 23.2.995c4.96 0 8.8 3.802 8.8 8.713 0 6.02-5.44 10.931-13.76 18.218L16 30.144z"/></symbol><symbol id="icon-instagram-2" viewBox="0 0 32 32"><path d="M31.969 9.408c-.075-1.7-.35-2.869-.744-3.882a7.806 7.806 0 0 0-1.851-2.838A7.867 7.867 0 0 0 26.542.844C25.523.45 24.36.175 22.66.1 20.947.019 20.403 0 16.059 0s-4.888.019-6.595.094c-1.7.075-2.869.35-3.882.744a7.803 7.803 0 0 0-2.838 1.85A7.867 7.867 0 0 0 .9 5.52C.506 6.539.231 7.702.156 9.402c-.081 1.713-.1 2.257-.1 6.601s.019 4.888.094 6.595c.075 1.7.35 2.869.744 3.882a7.895 7.895 0 0 0 1.85 2.838 7.867 7.867 0 0 0 2.832 1.844c1.019.394 2.182.669 3.882.744 1.706.075 2.25.094 6.595.094s4.888-.019 6.595-.094c1.7-.075 2.869-.35 3.882-.744a8.184 8.184 0 0 0 4.682-4.682c.394-1.019.669-2.182.744-3.882.075-1.707.094-2.251.094-6.595s-.006-4.888-.081-6.595zm-2.882 13.065c-.069 1.563-.331 2.407-.55 2.969a5.31 5.31 0 0 1-3.038 3.038c-.563.219-1.413.481-2.969.55-1.688.075-2.194.094-6.464.094s-4.782-.019-6.464-.094c-1.563-.069-2.407-.331-2.969-.55a4.926 4.926 0 0 1-1.838-1.194 4.974 4.974 0 0 1-1.194-1.838c-.219-.563-.481-1.413-.55-2.969-.075-1.688-.094-2.194-.094-6.464s.019-4.782.094-6.464c.069-1.563.331-2.407.55-2.969a4.868 4.868 0 0 1 1.2-1.838A4.974 4.974 0 0 1 6.639 3.55c.563-.219 1.413-.481 2.969-.55 1.688-.075 2.194-.094 6.464-.094 4.276 0 4.782.019 6.464.094 1.563.069 2.407.331 2.969.55a4.914 4.914 0 0 1 1.838 1.194 4.974 4.974 0 0 1 1.194 1.838c.219.563.481 1.413.55 2.969.075 1.688.094 2.194.094 6.464s-.019 4.77-.094 6.458z"/><path d="M16.059 7.783c-4.538 0-8.22 3.682-8.22 8.22s3.682 8.22 8.22 8.22c4.539 0 8.22-3.682 8.22-8.22s-3.682-8.22-8.22-8.22zm0 13.552a5.333 5.333 0 0 1 0-10.664 5.333 5.333 0 0 1 0 10.664zM26.524 7.458a1.919 1.919 0 1 1-3.838 0 1.919 1.919 0 0 1 3.838 0z"/></symbol><symbol id="icon-twitter-1" viewBox="0 0 32 32"><path d="M32 6.078c-1.19.522-2.458.868-3.78 1.036a6.523 6.523 0 0 0 2.886-3.626 13.11 13.11 0 0 1-4.16 1.588A6.574 6.574 0 0 0 22.154 3c-3.632 0-6.556 2.948-6.556 6.562 0 .52.044 1.02.152 1.496-5.454-.266-10.28-2.88-13.522-6.862a6.605 6.605 0 0 0-.898 3.316 6.57 6.57 0 0 0 2.914 5.452 6.479 6.479 0 0 1-2.964-.808v.072c0 3.188 2.274 5.836 5.256 6.446a6.548 6.548 0 0 1-1.72.216 5.8 5.8 0 0 1-1.242-.112c.85 2.598 3.262 4.508 6.13 4.57a13.182 13.182 0 0 1-8.134 2.798c-.538 0-1.054-.024-1.57-.09A18.469 18.469 0 0 0 10.064 29c12.072 0 18.672-10 18.672-18.668 0-.29-.01-.57-.024-.848A13.087 13.087 0 0 0 32 6.078z"/></symbol><symbol id="icon-linkedin-1" viewBox="0 0 32 32"><path d="M31.992 32v-.001H32V20.263c0-5.741-1.236-10.164-7.948-10.164-3.227 0-5.392 1.771-6.276 3.449h-.093v-2.913h-6.364v21.364h6.627V21.42c0-2.785.528-5.479 3.977-5.479 3.399 0 3.449 3.179 3.449 5.657v10.401h6.62zM.528 10.636h6.635V32H.528V10.636zM3.843 0C1.722 0 0 1.721 0 3.843s1.721 3.879 3.843 3.879c2.121 0 3.843-1.757 3.843-3.879A3.846 3.846 0 0 0 3.843 0z"/></symbol><symbol id="icon-github" viewBox="0 0 32 32"><path d="M14.9.375C8.575.806 3.081 4.987.931 11.019.6 11.931.294 13.2.15 14.219c-.144.981-.156 3.1-.031 4.094.637 5.1 3.594 9.538 8.044 12.075 1.025.587 2.612 1.25 3.019 1.262.319.006.588-.125.725-.356.113-.188.119-.313.1-1.669a44.197 44.197 0 0 0-.025-1.475 4.547 4.547 0 0 0-.512.075c-1.644.269-3.106-.1-4.037-1.031-.362-.363-.475-.538-.838-1.288-.588-1.225-.931-1.694-1.594-2.175-.487-.35-.75-.613-.75-.744 0-.313.756-.419 1.356-.188.781.294 1.3.744 1.869 1.613.787 1.194 1.775 1.725 3.031 1.631.481-.038 1.456-.306 1.531-.425.019-.038.081-.238.125-.444.119-.5.425-1.131.688-1.425.25-.281.275-.262-.537-.375-.644-.087-1.762-.375-2.3-.587-2.263-.894-3.569-2.563-4.056-5.181-.156-.837-.156-2.894 0-3.544a6.274 6.274 0 0 1 1.219-2.488l.269-.331-.094-.294c-.325-1.006-.287-2.313.1-3.525.125-.381.15-.419.338-.456.669-.125 2.2.425 3.6 1.288l.613.381.544-.125c1.275-.294 1.863-.356 3.456-.356 1.6 0 2.181.063 3.456.356l.55.125.481-.3c.956-.6 1.9-1.044 2.544-1.206.531-.131.994-.194 1.194-.156.175.031.206.075.325.45.356 1.113.419 2.525.144 3.388l-.131.406.125.156c.613.756 1.094 1.681 1.325 2.556.163.613.225 2.175.119 3.05-.462 3.8-2.544 5.844-6.506 6.394-.75.1-.738.094-.519.331.288.3.563.837.719 1.394.125.462.137.663.169 3.306.044 3.075.031 3.012.413 3.169.294.125.637.081 1.25-.163 2.175-.844 3.887-1.944 5.525-3.556a16.092 16.092 0 0 0 4.7-9.544c.125-.994.113-3.113-.031-4.094C30.774 6.599 24.661.899 17.024.374c-1.006-.069-1.094-.069-2.119 0z"/></symbol><symbol id="icon-email" viewBox="0 0 32 32"><path d="M14.469.069c-5 .519-9.381 3.237-12.044 7.475C-.619 12.382-.8 18.65 1.956 23.657a16.34 16.34 0 0 0 5.256 5.706c1.488.994 3.75 1.944 5.475 2.288 1.338.269 1.844.319 3.313.319 1.475 0 2.081-.063 3.325-.319 5.5-1.15 10.094-5.262 11.863-10.637.575-1.738.781-3.069.781-5.012 0-1.881-.2-3.206-.725-4.844-.775-2.438-2.063-4.55-3.887-6.4C24.863 2.233 21.776.677 18.22.152c-.769-.113-2.988-.163-3.75-.081zm6.625 13.806-4.313 4.313h-1.563L6.593 9.563h18.813l-4.313 4.313zM8.825 19.2l-2.95 2.956V10.343l2.95 2.956 2.956 2.95-2.956 2.95zm17.3-2.938v5.894l-5.906-5.906 2.938-2.938a541.045 541.045 0 0 1 2.95-2.938c.012 0 .019 2.65.019 5.887zm-12.45 1.875 1.075 1.081h2.5l1.075-1.081c.594-.587 1.113-1.075 1.144-1.075.038 0 1.275 1.206 2.75 2.688l2.688 2.688H7.094l2.688-2.688c1.475-1.481 2.713-2.688 2.75-2.688.031 0 .55.488 1.144 1.075z"/></symbol><symbol id="icon-close" viewBox="0 0 18 18"><path d="M15 4.108 13.892 3 9.5 7.392 5.108 3 4 4.108 8.392 8.5 4 12.892 5.108 14 9.5 9.608 13.892 14 15 12.892 10.608 8.5 15 4.108Z"/></symbol><symbol id="icon-close-tag-x" viewBox="0 0 32 32"><path d="m26.667 7.303-1.97-1.97-7.808 7.808-7.808-7.808-1.97 1.97 7.808 7.808-7.808 7.808 1.97 1.97 7.808-7.808 7.808 7.808 1.97-1.97-7.808-7.808 7.808-7.808z"/></symbol><symbol id="youtube" viewBox="0 0 48 48"><path fill="#ff0302" style="fill:var(--color1,#ff0302)" d="M47.04 12.37A6.03 6.03 0 0 0 42.8 8.1c-3.75-1-18.75-1-18.75-1s-15 0-18.76 1a6.04 6.04 0 0 0-4.24 4.27C.05 16.14.05 24 .05 24s0 7.86 1 11.63a6.03 6.03 0 0 0 4.24 4.27c3.76 1 18.76 1 18.76 1s15 0 18.75-1a6.04 6.04 0 0 0 4.24-4.27c1-3.77 1-11.63 1-11.63s0-7.86-1-11.63z"/><path fill="#fefefe" style="fill:var(--color2,#fefefe)" d="M19.14 31.14V16.86L31.68 24l-12.54 7.14z"/></symbol><symbol id="google" viewBox="0 0 32 32"><path d="M7.5 16c0-1.585.437-3.071 1.196-4.342V6.264H3.302C1.161 9.044.001 12.433.001 16.001s1.161 6.956 3.301 9.737h5.394v-5.394A8.448 8.448 0 0 1 7.5 16.002zM16 24.5l-3.75 3.75L16 32c3.567 0 6.956-1.16 9.737-3.301V23.31h-5.389A8.495 8.495 0 0 1 16 24.5z"/><path d="m8.696 20.342-5.394 5.394c.424.55.885 1.078 1.385 1.577a15.895 15.895 0 0 0 11.314 4.686v-7.5a8.503 8.503 0 0 1-7.304-4.158zM32 16c0-.973-.088-1.949-.262-2.899l-.141-.769H16v7.5h7.591a8.453 8.453 0 0 1-3.243 3.477l5.389 5.389c.55-.424 1.078-.885 1.577-1.385A15.895 15.895 0 0 0 32 15.999zM22.01 9.99l.663.663 5.303-5.303-.663-.663A15.895 15.895 0 0 0 15.999.001l-3.75 3.75 3.75 3.75c2.27 0 4.405.884 6.01 2.49z"/><path d="M16 7.5V0A15.895 15.895 0 0 0 4.686 4.686a16.33 16.33 0 0 0-1.385 1.577l5.394 5.394a8.504 8.504 0 0 1 7.304-4.158z"/></symbol><symbol id="arrow-up" viewBox="0 0 7 10" fill="none"><path d="m1 1 4.95 4L1 9" stroke-width="2" stroke-linecap="round" stroke-linejoin="round"/></symbol></defs></svg>